<svg width="24" height="24" viewBox="0 0 24 24" fill="none" xmlns="http://www.w3.org/2000/svg">
<path
  fill="currentColor"
  stroke="currentColor"
  stroke-width="0.5"
  d="M5.67222 4.58571C5.38406 4.58571 5.1077 4.70018 4.90394 4.90394C4.70018 5.1077 4.58571 5.38406 4.58571 5.67222V18.793L6.99095 16.3878C7.13964 16.2391 7.3413 16.1555 7.55158 16.1555H18.8278C19.1159 16.1555 19.3923 16.0411 19.596 15.8373C19.7998 15.6335 19.9143 15.3572 19.9143 15.069V5.67222C19.9143 5.38406 19.7998 5.1077 19.596 4.90394C19.3923 4.70018 19.1159 4.58571 18.8278 4.58571H5.67222ZM3.78267 3.78267C4.28381 3.28154 4.9635 3 5.67222 3H18.8278C19.5365 3 20.2162 3.28154 20.7173 3.78267C21.2184 4.28381 21.5 4.9635 21.5 5.67222V15.069C21.5 15.7777 21.2184 16.4574 20.7173 16.9586C20.2162 17.4597 19.5365 17.7413 18.8278 17.7413H7.87999L4.35349 21.2678C4.12673 21.4945 3.78571 21.5623 3.48944 21.4396C3.19317 21.3169 3 21.0278 3 20.7071V5.67222C3 4.9635 3.28154 4.28381 3.78267 3.78267Z"
/>
</svg>
