<svg width="24" height="24" viewBox="0 0 24 24" fill="none" xmlns="http://www.w3.org/2000/svg">
<path d="M6.62988 13.2211H10.7793V17.3705C10.7793 18.4708 10.3423 19.526 9.56445 20.3041C8.78628 21.0823 7.73038 21.5199 6.62988 21.5199C5.5294 21.5199 4.47445 21.0822 3.69629 20.3041C2.91813 19.5259 2.48049 18.471 2.48047 17.3705C2.48047 16.27 2.91812 15.2141 3.69629 14.4359C4.47441 13.658 5.5296 13.2211 6.62988 13.2211ZM17.3711 13.2211C18.4714 13.2211 19.5266 13.658 20.3047 14.4359C21.0829 15.2141 21.5205 16.27 21.5205 17.3705V21.5199H17.3711C16.2706 21.5199 15.2147 21.0823 14.4365 20.3041C13.6586 19.526 13.2217 18.4708 13.2217 17.3705C13.2217 16.27 13.6584 15.2141 14.4365 14.4359C15.2147 13.6577 16.2706 13.2211 17.3711 13.2211ZM6.62988 2.48083C7.73039 2.48083 8.78628 2.91751 9.56445 3.69568C10.3426 4.47385 10.7793 5.52976 10.7793 6.63025C10.7793 7.73052 10.3423 8.78573 9.56445 9.56384C8.78628 10.342 7.73039 10.7797 6.62988 10.7797C5.52941 10.7797 4.47445 10.342 3.69629 9.56384C2.91814 8.78569 2.4805 7.73071 2.48047 6.63025V2.48083H6.62988ZM17.3711 2.47986C18.4716 2.47988 19.5265 2.91752 20.3047 3.69568C21.0828 4.47384 21.5205 5.52879 21.5205 6.62927C21.5205 7.1741 21.4135 7.71379 21.2051 8.21716C20.9965 8.7206 20.69 9.17853 20.3047 9.56384C19.9195 9.94895 19.4622 10.2548 18.959 10.4633C18.4556 10.6718 17.9159 10.7787 17.3711 10.7787H13.2217V6.62927C13.2217 5.52899 13.6586 4.4738 14.4365 3.69568C15.2147 2.91751 16.2706 2.47986 17.3711 2.47986Z" stroke="currentColor" stroke-width="1.5"/>
</svg>
